<?xml version="1.0" standalone="no"?><svg xmlns="http://www.w3.org/2000/svg" viewBox="0 0 1440 320"><path fill="#f6fbff" fill-opacity="1" d="M0,192L30,208C60,224,120,256,180,266.7C240,277,300,267,360,245.3C420,224,480,192,540,165.3C600,139,660,117,720,128C780,139,840,181,900,208C960,235,1020,245,1080,213.3C1140,181,1200,107,1260,80C1320,53,1380,75,1410,85.3L1440,96L1440,0L1410,0C1380,0,1320,0,1260,0C1200,0,1140,0,1080,0C1020,0,960,0,900,0C840,0,780,0,720,0C660,0,600,0,540,0C480,0,420,0,360,0C300,0,240,0,180,0C120,0,60,0,30,0L0,0Z"></path></svg>