<?xml version="1.0" standalone="no"?><svg xmlns="http://www.w3.org/2000/svg" viewBox="0 0 1440 320"><path fill="#f6fbff" fill-opacity="1" d="M0,288L30,245.3C60,203,120,117,180,80C240,43,300,53,360,69.3C420,85,480,107,540,144C600,181,660,235,720,229.3C780,224,840,160,900,133.3C960,107,1020,117,1080,138.7C1140,160,1200,192,1260,218.7C1320,245,1380,267,1410,277.3L1440,288L1440,320L1410,320C1380,320,1320,320,1260,320C1200,320,1140,320,1080,320C1020,320,960,320,900,320C840,320,780,320,720,320C660,320,600,320,540,320C480,320,420,320,360,320C300,320,240,320,180,320C120,320,60,320,30,320L0,320Z"></path></svg>